<svg viewBox="0 0 24 24" xmlns="http://www.w3.org/2000/svg">
  <g fill="none" stroke="#000000" stroke-width="1.5" transform="translate(4,3)">
    <path d="M14.5,6 C13.1193,6 12,4.8807 12,3.5 C12,2.11929 13.1193,1 14.5,1 C15.8807,1 17,2.11929 17,3.5 C17,4.8807 15.8807,6 14.5,6 Z"/>
    <path d="M2,4 C0.89543,4 0,3.10455 0,2 C0,0.89543 0.89543,0 2,0 C3.10455,0 4,0.89543 4,2 C4,3.10455 3.10455,4 2,4 Z"/>
    <path stroke-linecap="round" stroke-linejoin="round" d="M9,17.5 L12,15 L12,12 C12,10.26695 13,9 14.5,9 C16,9 17,10.26695 17,12 L17,14.4186 L17,19"/>
    <path stroke-linecap="round" stroke-linejoin="round" d="M8,14.5 L5,12 L5,10 C5,8.26695 4,7 2.5,7 C1,7 0,8.26695 0,10 L0,11.4186 L0,19"/>
  </g>
</svg>